<?xml version="1.0" encoding="utf-8"?>
<!-- Generator: Adobe Illustrator 16.0.0, SVG Export Plug-In . SVG Version: 6.00 Build 0)  -->
<!DOCTYPE svg PUBLIC "-//W3C//DTD SVG 1.1//EN" "http://www.w3.org/Graphics/SVG/1.1/DTD/svg11.dtd">
<svg version="1.1" id="Layer_1" xmlns="http://www.w3.org/2000/svg" xmlns:xlink="http://www.w3.org/1999/xlink" x="0px" y="0px"
	 width="595.28px" height="841.89px" viewBox="0 0 595.28 841.89" enable-background="new 0 0 595.28 841.89" xml:space="preserve">
<path d="M555.179,182.671c-19.539,54.478-36.493,109.848-56.431,164.187c-10.046,27.381-20.908,54.47-33.244,80.906
	c-11.427,24.487-23.869,49.275-39.278,71.537c-3.627,5.24-7.918,10.861-13.499,14.132c-5.15,3.018-6.467-4.799-7.316-8.537
	c-2.098-9.224-0.229-19.056,1.24-28.233c1.642-10.258,2.635-20.475,3.607-30.814c4.13-43.897,10.265-88.681,2.796-132.514
	c0.518-5.315,0.821-10.59,0.896-15.772c0.373-26.05-7.039-50.493-19.08-73.361c-0.212-0.403-0.432-0.817-0.655-1.234
	c3.001-8.751,5.088-17.79,4.786-26.966c-0.13-3.958-4.104-6.003-7.523-4.317c-4.521,2.228-8.35,5.637-11.749,9.5
	c-7.336-8.29-16.382-14.421-26.817-12.783c-9.151,1.437-17.188,9.502-23.24,15.895c-7.001,7.395-13.043,15.7-18.961,23.965
	c-8.319,11.617-15.85,23.734-22.797,36.186c-3.575,1.414-7.103,2.972-10.581,4.667c-1.308-3.406-2.883-6.709-4.783-9.871
	c-5.148-8.565-13.3-14.272-23.379-14.809c-11.132-0.593-21.451,6.178-29.401,13.221c-5.319,4.712-10.169,10.048-14.667,15.753
	c-34.07,0.309-68.129-0.296-102.101-3.408c-6.423-0.588-6.367,9.417,0,10c31.532,2.889,63.141,3.621,94.763,3.464
	c-7.36,10.833-13.755,22.439-19.731,33.491c-13.988,25.873-24.741,53.505-33.627,81.501c-9.211,29.018-16.585,58.825-21.442,88.882
	c-4.212,26.063-5.51,52.315-8.171,78.53c-0.976,9.613-1.63,19.333-1.016,28.991c0.494,7.775,1.952,15.256,7.704,20.868
	c10.382,10.128,25.077,5.124,35.684-1.729c25.857-16.703,43.558-44.193,62.373-67.465c24.598-30.423,46.304-63.396,66.164-97.332
	c3.727,9.144,10.438,16.525,21.684,14.592c2.933-0.504,5.624-1.67,8.1-3.292c-1.749,23.271-1.135,46.859,2.696,69.826
	c0.899,5.392,8.081,4.097,9.643,0c8.278-21.71,12.392-44.724,17.674-67.273c3.367-14.374,7.867-28.36,12.411-42.361
	c24.363-16.83,40.104-43.783,48.521-72.708c0.541,17.428-0.456,34.946-1.854,52.274c-1.227,15.215-2.87,30.393-4.316,45.587
	c-1.238,13.016-3.075,25.799-4.81,38.748c-1.468,10.955-1.72,23.391,4.127,33.235c4.252,7.159,12.229,7.734,18.925,3.811
	c7.762-4.548,13.478-12.896,18.346-20.221c7.433-11.181,13.997-23.021,20.367-34.828c47.833-88.669,73.77-186.916,107.608-281.264
	C567.004,179.244,557.339,176.647,555.179,182.671z M403.734,304.271c-0.09,0.064-0.184,0.124-0.27,0.193
	c-13.599,11.01-22.492,27.102-29.738,42.728c-6.19,13.349-11.233,27.197-15.876,41.162c-1.039-0.443-2.181-0.562-3.18-0.176
	c-2.118,0.818-4.569,1.723-6.995,2.096c1.562-8.365,2.769-17.309,1.146-25.604c-0.831-4.247-7.19-4.882-9.139-1.194
	c-1.9,3.597-3.637,7.268-5.255,10.988c-0.06-0.322-0.119-0.639-0.178-0.947c-0.715-3.741-1.217-7.658-1.813-11.578
	c19.398-39.666,36.947-80.157,54.479-120.723c0.812-1.878,1.629-3.779,2.437-5.696C399.703,257.486,404.918,279.846,403.734,304.271
	z M236.469,445.426c-0.995-6.359-0.924-12.935-0.173-19.541c6.208-13.607,10.691-27.986,13.307-42.786
	c0.193-1.09,0.376-2.184,0.55-3.281c0.341,3.127,0.512,6.276,0.644,9.376c0.403,9.492-0.143,18.953-0.511,28.421
	c-1.159,4.173-2.416,8.317-3.953,12.384C244.263,435.475,241.212,441.611,236.469,445.426z M210.472,450.498
	c-4.272,6.052-8.81,11.906-13.931,17.267c-2.997,3.137-9.196,10.067-14.231,9.157c-4.697-0.849-6.803-8.35-7.849-12.111
	c-2.039-7.334-2.431-15.078-2.598-22.647c-0.273-12.403,0.879-24.716,1.782-37.06c0.944-0.634,1.725-1.582,2.176-2.774
	c0.596-1.576,1.216-3.145,1.847-4.709c1.11,1.072,2.736,1.597,4.661,1.202c11.111-2.279,20.471-13.083,28.491-20.357
	c7.571-6.867,18.458-18.815,29.723-17.993c0.583,0.042,1.119,0.175,1.621,0.368c-0.186,2.966-0.437,5.929-0.763,8.883
	c-0.592,1.674-1.193,3.346-1.774,5.024c-5.231,15.111-10.56,31.281-12.682,47.564C222.339,432.158,216.781,441.563,210.472,450.498z
	 M236.93,310.445c4.344,7.938,4.934,21.295,5.274,27c0.263,4.413,0.367,8.842,0.325,13.271c-11.818-2.356-23.63,7.562-31.957,14.636
	c-5.689,4.833-11.069,10.02-16.712,14.907c-2.014,1.745-4.18,3.673-6.513,5.313c0.715-4.452,1.469-8.897,2.296-13.327
	C202.079,349.375,218.163,328.324,236.93,310.445z M197.378,341.015c4.442-13.533,13.301-35.363,29.772-36.778
	c0.456-0.039,0.895-0.042,1.323-0.021C216.988,315.393,206.558,327.879,197.378,341.015z M379.493,217.844
	c1.314,1.962,2.562,3.973,3.756,6.015c-0.978,2.608-2.007,5.185-3.037,7.721c-4.757,11.712-9.969,23.273-14.931,34.902
	c-11.535,27.027-23.645,53.812-36.439,80.267c-1.272-3.329-2.951-6.473-5.307-9.285c-1.715-2.047-4.99-1.818-6.888-0.162
	c9.665-21.683,19.21-43.438,29.993-64.585c5.288-1.41,10.523-3.025,15.688-4.896c4.333-1.57,5.187-8.471,0-9.643
	c-2.422-0.547-4.833-1.003-7.236-1.399c6.162-11.129,13.028-21.719,20.063-32.3C376.56,222.368,377.991,220.113,379.493,217.844z
	 M310.231,327.27c-6.53,14.688-11.975,29.708-17.227,44.824c-0.891,0.021-1.779,0.217-2.528,0.589
	c-0.211,0.105-0.414,0.221-0.622,0.329c0.259-7.868,0.297-15.778-1.033-23.341c-0.735-4.183-7.327-4.964-9.139-1.194
	c-1.05,2.185-2.063,4.385-3.044,6.596c1.575-7.456,2.932-14.969,3.933-22.582c1.519-11.55,2.708-24.045,2.071-36.302
	c2.42-5.042,4.916-10.056,7.493-15.027c14.735-0.942,29.417-2.542,43.784-5.466C325.558,292.664,317.91,309.998,310.231,327.27z
	 M269.743,338.002c-2.259,14.441-5.692,28.583-9.443,42.657c-0.56-6.777-1.753-14.305-4.996-20.184
	c5.157-13.849,10.762-27.535,16.706-41.059C271.5,325.643,270.706,331.849,269.743,338.002z M279.54,374.393
	c-0.025,2.021-0.039,4.042-0.066,6.063c-1.067,1.002-2.098,2.05-3.095,3.138C277.38,380.509,278.424,377.438,279.54,374.393z
	 M303.422,270.063c10.242-3,20.811-4.704,31.542-4.827C324.59,267.498,314.043,269.016,303.422,270.063z M272.304,294.807
	c-1.021,2.142-2.034,4.288-3.032,6.44c-5.991,12.922-11.613,26.021-16.889,39.258c-0.156-3.386-0.403-6.758-0.747-10.104
	c-0.821-7.996-2.473-18.908-7.374-26.654c0.504-0.442,1.005-0.888,1.512-1.325c7.883-6.797,16.381-12.957,25.345-18.223
	C271.72,287.707,272.082,291.264,272.304,294.807z M268.038,415.283c2.095-3.896,4.237-7.768,6.535-11.555
	c1.494-2.462,3.079-4.954,4.789-7.369c0.004,4.675,0.051,9.379,0.216,14.084c-4.666,12.587-9.915,25.15-16.678,36.718
	C264.186,436.49,265.855,425.831,268.038,415.283z M297.251,390.719c1.806,0.572,4.008,0.149,5.284-1.183
	c10.043-10.491,12.658-24.365,17.75-37.288c0.811,2.76,1.31,5.655,1.771,8.34c-10.145,20.458-20.763,40.693-31.948,60.607
	c-0.245-2.775-0.414-5.563-0.531-8.355C292.277,405.537,294.788,398.137,297.251,390.719z M388.208,206.571
	c-0.264,1.536-0.582,3.064-0.949,4.585c-0.446-0.679-0.902-1.357-1.369-2.034C386.637,208.24,387.41,207.388,388.208,206.571z
	 M317.73,235.562c5.736-7.996,11.504-15.937,18.123-23.237c4.69-5.173,13.605-15.534,21.648-14.225
	c6.297,1.025,11.64,6.347,15.786,11.398c-1.064,1.51-2.098,3.015-3.106,4.481c-7.095,10.307-13.952,20.745-20.229,31.575
	c-1.906,3.288-3.765,6.601-5.583,9.936c-14.588-1.102-28.758,0.472-42.349,4.218C306.928,251.438,312.138,243.359,317.73,235.562z
	 M224.802,266.626c6.574-6.442,14.822-12.18,24.366-12.192c8.841-0.012,14.28,8.13,17.604,15.256
	c0.383,0.82,0.731,1.653,1.065,2.491c-8.962,0.278-17.9,0.437-26.755,0.633c-7.523,0.167-15.046,0.313-22.57,0.428
	C220.543,270.958,222.637,268.748,224.802,266.626z M202.788,551.984c-10.213,13.299-20.82,26.371-32.699,38.23
	c-8.723,8.709-21.665,21.977-35.155,21.354c-15.205-0.702-11.551-27.238-10.903-36.854c0.574-8.511,1.793-16.948,2.285-25.462
	c0.927-16.039,2.427-32.058,4.606-47.976c4.172-30.486,11.318-60.529,20.021-90.023c8.423-28.549,18.956-56.543,32.483-83.08
	c7.724-15.153,16.369-30.875,26.853-44.82c10.268-0.12,20.537-0.312,30.804-0.541c4.484-0.1,8.992-0.191,13.514-0.293
	c-6.128,4.269-12.046,8.946-17.742,13.949c-1.617-0.896-3.409-1.559-5.406-1.926c-17.387-3.197-30.854,14.731-37.452,28.22
	c-7.135,14.588-11.062,30.617-14.005,46.604c-4.56,8.546-8.58,17.163-12.01,25.698c-2.296,0.42-3.833,2.646-3.982,4.934
	c-1.089,16.773-2.905,33.45-1.785,50.285c0.813,12.223,4.212,37.753,21.576,36.607c8.241-0.543,15.211-7.233,20.594-12.866
	c6.005-6.285,11.174-13.398,16.146-20.509c2.044-2.923,3.984-5.909,5.84-8.944c0.32,3.296,0.912,6.57,1.807,9.756
	c0.692,2.464,3.577,4.428,6.15,3.492c9.683-3.52,15.667-11.257,19.806-20.313c-1.343,9.475-2.367,18.989-3.135,28.491
	c-0.336,4.16,5.844,6.895,8.536,3.535c9.102-11.357,16.118-23.846,22.013-36.929c0.147,0.927,0.306,1.852,0.472,2.774
	c-13.26,22.85-27.313,45.232-42.321,66.979C227.978,519.348,215.352,535.625,202.788,551.984z M310.877,451.168
	c-10.128,8.626-15.463-2.469-17.839-11.867c-0.167-0.66-0.315-1.325-0.467-1.989c7.587-13.324,14.916-26.766,22.035-40.236
	c3.474-6.572,6.876-13.176,10.223-19.804c0.37,1.859,0.787,3.708,1.291,5.541c0.638,2.32,1.466,4.602,2.547,6.729
	c-5.95,17.84-9.401,36.58-11.636,55.155C315.176,447.065,313.135,449.245,310.877,451.168z M336.253,458.708
	c-3.739,15.599-6.805,31.429-11.014,46.923c-1.357-18.955-0.629-38.131,1.35-56.941c3.651-5.545,6.49-11.66,8.67-16.657
	c4.434-10.165,7.808-20.783,10.304-31.589c1.471-0.033,2.949-0.206,4.411-0.479c-0.93,5.983-1.87,11.959-1.974,18.036
	c-0.004,0.206,0.012,0.408,0.035,0.607C343.724,431.86,339.508,445.131,336.253,458.708z M363.469,403.399
	c5.378-16.884,11.034-33.726,18.315-49.896c5.38-11.95,11.74-24.162,20.555-34.075C398.201,350.019,385.85,382.185,363.469,403.399z
	"/>
</svg>
